<svg aria-hidden="true" style="position:absolute;width:0;height:0;overflow:hidden" xmlns="http://www.w3.org/2000/svg"><defs><symbol id="icon-btn-close" viewBox="0 0 32 32"><path d="M32 3.223 28.777 0 16 12.777 3.223 0 0 3.223 12.777 16 0 28.777 3.223 32 16 19.223 28.777 32 32 28.777 19.223 16 32 3.223z"/></symbol><symbol id="icon-modal-checkbox" viewBox="0 0 32 32"><path d="M28.444 4.333v23.333H3.555V4.333h24.889zm0-3.333H3.555C1.599 1-.001 2.5-.001 4.333v23.333c0 1.833 1.6 3.333 3.556 3.333h24.889c1.956 0 3.556-1.5 3.556-3.333V4.333C32 2.5 30.4 1 28.444 1z"/></symbol><symbol id="icon-modal-checkbox-check" viewBox="0 0 32 32"><path fill="#2196f3" style="fill:var(--color1, #2196f3)" d="M4 1h24a4 4 0 0 1 4 4v22a4 4 0 0 1-4 4H4a4 4 0 0 1-4-4V5a4 4 0 0 1 4-4z"/><path fill="#fff" style="fill:var(--color2, #fff);stroke:var(--color2, #fff)" stroke="#fff" stroke-width=".4" d="m7.914 16.503-.138-.131-2.067 1.958 7.282 6.947 15.298-14.594-2.053-1.959-13.245 12.623-5.077-4.844z"/></symbol>
<symbol id="icon-modal-email" viewBox="0 0 16 12">
<path d="M14 0H2C1.175 0 0.5075 0.675 0.5075 1.5L0.5 10.5C0.5 11.325 1.175 12 2 12H14C14.825 12 15.5 11.325 15.5 10.5V1.5C15.5 0.675 14.825 0 14 0ZM13.7 3.1875L8.3975 6.5025C8.1575 6.6525 7.8425 6.6525 7.6025 6.5025L2.3 3.1875C2.1125 3.0675 2 2.865 2 2.6475C2 2.145 2.5475 1.845 2.975 2.1075L8 5.25L13.025 2.1075C13.4525 1.845 14 2.145 14 2.6475C14 2.865 13.8875 3.0675 13.7 3.1875Z"/>
</symbol>
<symbol id="icon-modal-phone" viewBox="0 0 14 14">
<path d="M11.996 9.12268L10.1579 8.91281C9.71644 8.86216 9.28224 9.01413 8.97105 9.32531L7.63948 10.6569C5.59147 9.61479 3.91254 7.94308 2.87044 5.88782L4.20925 4.54901C4.52043 4.23782 4.6724 3.80361 4.62174 3.36217L4.41188 1.53849C4.32504 0.807567 3.70991 0.257568 2.97176 0.257568H1.71979C0.902035 0.257568 0.221776 0.93783 0.272434 1.75559C0.655984 7.93584 5.59871 12.8714 11.7717 13.2549C12.5894 13.3056 13.2697 12.6253 13.2697 11.8075V10.5556C13.2769 9.82465 12.7269 9.20952 11.996 9.12268Z"/>
</symbol><symbol id="icon-modal-user" viewBox="0 0 32 32"><path d="M16 16c4.42 0 8-3.58 8-8s-3.58-8-8-8-8 3.58-8 8 3.58 8 8 8zm0 4c-5.34 0-16 2.68-16 8v2c0 1.1.9 2 2 2h28c1.1 0 2-.9 2-2v-2c0-5.32-10.66-8-16-8z"/></symbol><symbol id="icon-send" viewBox="0 0 32 32"><path fill="#fff" style="fill:var(--color2, #fff)" d="M32 0 0 18l10.227 3.788L26 7 14.002 23.186l.01.004-.012-.004V32l5.735-6.691L27 28l5-28z"/></symbol></defs></svg>